<svg width="187" height="82" viewBox="0 0 187 82" fill="none" xmlns="http://www.w3.org/2000/svg">
<line x1="1.38888" y1="45.2109" x2="1.38888" y2="71.2168" stroke="#8DCD43" stroke-width="2.77775"/>
<line x1="11.0139" y1="36.5547" x2="11.0139" y2="71.2179" stroke="#8DCD43" stroke-width="2.77775"/>
<line x1="20.6369" y1="25.6094" x2="20.6369" y2="71.2181" stroke="#8DCD43" stroke-width="2.77775"/>
<path d="M11.1457 24.3127C8.00867 23.2876 5.39258 20.6181 5.39258 17.3178V11.5319C5.39258 11.1725 5.68881 10.88 6.0481 10.8909C16.5215 11.2088 20.1099 19.129 20.5985 23.1611C20.6008 23.1801 20.6168 23.1934 20.6359 23.1934C20.655 23.1934 20.671 23.1801 20.6733 23.1611C21.162 19.129 24.7503 11.2088 35.2237 10.8909C35.583 10.88 35.8793 11.1725 35.8793 11.5319V17.3178C35.8793 20.6181 33.2632 23.2876 30.1262 24.3127C25.8153 25.7214 21.3688 28.5992 20.7439 33.8601C20.7396 33.8958 20.7094 33.9234 20.6734 33.9234C20.6596 33.9234 20.6468 33.9195 20.6359 33.9127C20.6251 33.9195 20.6122 33.9234 20.5985 33.9234C20.5625 33.9234 20.5322 33.8958 20.528 33.8601C19.903 28.5992 15.4565 25.7214 11.1457 24.3127Z" fill="#8DCD43"/>
<path d="M68.8918 24.3127C65.7548 23.2876 63.1387 20.6181 63.1387 17.3178V11.5319C63.1387 11.1725 63.4349 10.88 63.7942 10.8909C74.2676 11.2088 77.856 19.129 78.3446 23.1611C78.3469 23.1801 78.3629 23.1934 78.382 23.1934C78.4011 23.1934 78.4171 23.1801 78.4194 23.1611C78.908 19.129 82.4964 11.2088 92.9698 10.8909C93.3291 10.88 93.6254 11.1725 93.6254 11.5319V17.3178C93.6254 20.6181 91.0093 23.2876 87.8722 24.3127C83.5614 25.7214 79.1149 28.5992 78.49 33.8601C78.4857 33.8958 78.4554 33.9234 78.4195 33.9234C78.4057 33.9234 78.3929 33.9195 78.382 33.9127C78.3712 33.9195 78.3583 33.9234 78.3446 33.9234C78.3086 33.9234 78.2783 33.8958 78.2741 33.8601C77.6491 28.5992 73.2026 25.7214 68.8918 24.3127Z" fill="#8DCD43"/>
<path d="M116.978 24.3127C113.841 23.2876 111.225 20.6181 111.225 17.3178V11.5319C111.225 11.1725 111.521 10.88 111.88 10.8909C122.354 11.2088 125.942 19.129 126.431 23.1611C126.433 23.1801 126.449 23.1934 126.468 23.1934C126.487 23.1934 126.503 23.1801 126.505 23.1611C126.994 19.129 130.582 11.2088 141.056 10.8909C141.415 10.88 141.711 11.1725 141.711 11.5319V17.3178C141.711 20.6181 139.095 23.2876 135.958 24.3127C131.647 25.7214 127.201 28.5992 126.576 33.8601C126.572 33.8958 126.541 33.9234 126.505 33.9234C126.492 33.9234 126.479 33.9195 126.468 33.9127C126.457 33.9195 126.444 33.9234 126.431 33.9234C126.395 33.9234 126.364 33.8958 126.36 33.8601C125.735 28.5992 121.289 25.7214 116.978 24.3127Z" fill="#8DCD43"/>
<line x1="30.2619" y1="36.5547" x2="30.2619" y2="71.2179" stroke="#8DCD43" stroke-width="2.77775"/>
<line x1="39.8869" y1="45.2109" x2="39.8869" y2="71.2168" stroke="#8DCD43" stroke-width="2.77775"/>
<line x1="49.5119" y1="40.5156" x2="49.5119" y2="71.216" stroke="#8DCD43" stroke-width="2.77775"/>
<line x1="59.135" y1="32.7422" x2="59.135" y2="71.2214" stroke="#8DCD43" stroke-width="2.77775"/>
<line x1="68.76" y1="39.4922" x2="68.76" y2="71.22" stroke="#8DCD43" stroke-width="2.77775"/>
<line x1="78.385" y1="25.6094" x2="78.385" y2="71.2181" stroke="#8DCD43" stroke-width="2.77775"/>
<line x1="88.01" y1="36.5547" x2="88.01" y2="71.2179" stroke="#8DCD43" stroke-width="2.77775"/>
<line x1="97.633" y1="32.7422" x2="97.633" y2="71.2214" stroke="#8DCD43" stroke-width="2.77775"/>
<line x1="107.258" y1="41.3984" x2="107.258" y2="71.2182" stroke="#8DCD43" stroke-width="2.77775"/>
<line x1="116.883" y1="45.2109" x2="116.883" y2="71.2168" stroke="#8DCD43" stroke-width="2.77775"/>
<line x1="126.508" y1="29.0703" x2="126.508" y2="71.2188" stroke="#8DCD43" stroke-width="2.77775"/>
<line x1="136.131" y1="45.2109" x2="136.131" y2="71.2168" stroke="#8DCD43" stroke-width="2.77775"/>
</svg>
