<svg width="21" height="21" viewBox="0 0 21 21" fill="none" xmlns="http://www.w3.org/2000/svg">
<path d="M6.59297 0.34375H14.993C18.193 0.34375 20.793 2.94375 20.793 6.14375V14.5438C20.793 16.082 20.1819 17.5573 19.0942 18.645C18.0065 19.7327 16.5312 20.3438 14.993 20.3438H6.59297C3.39297 20.3438 0.792969 17.7438 0.792969 14.5438V6.14375C0.792969 4.60549 1.40404 3.13024 2.49175 2.04253C3.57946 0.95482 5.05471 0.34375 6.59297 0.34375ZM6.39297 2.34375C5.43819 2.34375 4.52252 2.72303 3.84738 3.39817C3.17225 4.0733 2.79297 4.98897 2.79297 5.94375V14.7437C2.79297 16.7337 4.40297 18.3438 6.39297 18.3438H15.193C16.1477 18.3438 17.0634 17.9645 17.7386 17.2893C18.4137 16.6142 18.793 15.6985 18.793 14.7437V5.94375C18.793 3.95375 17.183 2.34375 15.193 2.34375H6.39297ZM16.043 3.84375C16.3745 3.84375 16.6924 3.97545 16.9269 4.20987C17.1613 4.44429 17.293 4.76223 17.293 5.09375C17.293 5.42527 17.1613 5.74321 16.9269 5.97763C16.6924 6.21205 16.3745 6.34375 16.043 6.34375C15.7114 6.34375 15.3935 6.21205 15.1591 5.97763C14.9247 5.74321 14.793 5.42527 14.793 5.09375C14.793 4.76223 14.9247 4.44429 15.1591 4.20987C15.3935 3.97545 15.7114 3.84375 16.043 3.84375ZM10.793 5.34375C12.1191 5.34375 13.3908 5.87053 14.3285 6.80822C15.2662 7.7459 15.793 9.01767 15.793 10.3438C15.793 11.6698 15.2662 12.9416 14.3285 13.8793C13.3908 14.817 12.1191 15.3438 10.793 15.3438C9.46689 15.3438 8.19512 14.817 7.25743 13.8793C6.31975 12.9416 5.79297 11.6698 5.79297 10.3438C5.79297 9.01767 6.31975 7.7459 7.25743 6.80822C8.19512 5.87053 9.46689 5.34375 10.793 5.34375ZM10.793 7.34375C9.99732 7.34375 9.23426 7.65982 8.67165 8.22243C8.10904 8.78504 7.79297 9.5481 7.79297 10.3438C7.79297 11.1394 8.10904 11.9025 8.67165 12.4651C9.23426 13.0277 9.99732 13.3438 10.793 13.3438C11.5886 13.3438 12.3517 13.0277 12.9143 12.4651C13.4769 11.9025 13.793 11.1394 13.793 10.3438C13.793 9.5481 13.4769 8.78504 12.9143 8.22243C12.3517 7.65982 11.5886 7.34375 10.793 7.34375Z" fill="#8DCD43"/>
</svg>
