<svg width="329" height="29" viewBox="0 0 329 29" fill="none" xmlns="http://www.w3.org/2000/svg">
<path d="M327.5 13.0684V18.1963H308.732V13.0684H327.5ZM313.552 15.6323L311.877 25.9224L309.006 22.7089H328.629V28.4522H304.801L306.749 15.6323L304.801 2.8125H328.458V8.55579H309.006L311.877 5.34228L313.552 15.6323Z" fill="white"/>
<path d="M288.819 25.2729H285.81L295.69 2.8125H303.177L291.246 28.4522H283.212L271.281 2.8125H278.871L288.819 25.2729Z" fill="white"/>
<path d="M259.047 2.8125V25.3071L255.868 22.1619H275.046V28.4522H251.971V2.8125H259.047Z" fill="white"/>
<path d="M233.072 28.9993C230.041 28.9993 227.375 28.4409 225.073 27.3241C222.794 26.2074 221.016 24.6462 219.74 22.6406C218.486 20.635 217.859 18.299 217.859 15.6324C217.859 12.9659 218.486 10.6299 219.74 8.62427C221.016 6.61867 222.794 5.0575 225.073 3.94075C227.375 2.824 230.041 2.26562 233.072 2.26562C236.126 2.26562 238.793 2.824 241.072 3.94075C243.351 5.0575 245.129 6.61867 246.405 8.62427C247.681 10.6299 248.319 12.9659 248.319 15.6324C248.319 18.299 247.681 20.635 246.405 22.6406C245.129 24.6462 243.351 26.2074 241.072 27.3241C238.793 28.4409 236.126 28.9993 233.072 28.9993ZM233.072 22.6748C234.736 22.6748 236.172 22.3899 237.38 21.8202C238.588 21.2504 239.511 20.4413 240.149 19.3929C240.81 18.3446 241.14 17.0911 241.14 15.6324C241.14 14.1738 240.81 12.9203 240.149 11.872C239.511 10.8236 238.588 10.0145 237.38 9.44474C236.172 8.87497 234.736 8.59008 233.072 8.59008C231.431 8.59008 230.007 8.87497 228.799 9.44474C227.591 10.0145 226.657 10.8236 225.996 11.872C225.335 12.9203 225.004 14.1738 225.004 15.6324C225.004 17.0911 225.335 18.3446 225.996 19.3929C226.657 20.4413 227.591 21.2504 228.799 21.8202C230.007 22.3899 231.431 22.6748 233.072 22.6748Z" fill="white"/>
<path d="M189.016 20.0425H196.229C196.343 20.749 196.673 21.3643 197.22 21.8885C197.767 22.4127 198.497 22.823 199.408 23.1192C200.343 23.3927 201.437 23.5295 202.69 23.5295C204.422 23.5295 205.79 23.313 206.792 22.8799C207.795 22.4241 208.297 21.7632 208.297 20.8971C208.297 20.2362 208.012 19.7234 207.442 19.3587C206.872 18.9941 205.778 18.732 204.16 18.5725L199.374 18.128C195.841 17.809 193.278 17.0113 191.682 15.735C190.087 14.4359 189.289 12.6924 189.289 10.5045C189.289 8.72683 189.802 7.22263 190.828 5.99193C191.876 4.76122 193.334 3.83819 195.203 3.22284C197.095 2.5847 199.294 2.26562 201.801 2.26562C204.263 2.26562 206.451 2.61888 208.365 3.3254C210.279 4.00912 211.795 4.98913 212.912 6.26542C214.051 7.5417 214.667 9.02311 214.758 10.7096H207.579C207.488 10.0943 207.191 9.57009 206.69 9.13706C206.211 8.68124 205.55 8.33938 204.707 8.11147C203.864 7.86077 202.85 7.73543 201.665 7.73543C200.069 7.73543 198.804 7.95194 197.87 8.38496C196.935 8.7952 196.468 9.41055 196.468 10.231C196.468 10.8236 196.742 11.3022 197.289 11.6668C197.858 12.0315 198.873 12.2822 200.331 12.4189L205.425 12.9317C207.864 13.1596 209.812 13.5585 211.271 14.1283C212.729 14.6752 213.789 15.4387 214.45 16.4187C215.111 17.3987 215.442 18.618 215.442 20.0767C215.442 21.8771 214.906 23.4497 213.835 24.7944C212.764 26.1162 211.259 27.1532 209.322 27.9053C207.385 28.6346 205.129 28.9993 202.553 28.9993C199.91 28.9993 197.574 28.6346 195.545 27.9053C193.54 27.1532 191.967 26.1048 190.828 24.7602C189.688 23.3927 189.084 21.8202 189.016 20.0425Z" fill="white"/>
<path d="M162.797 28.9993C159.766 28.9993 157.099 28.4409 154.797 27.3241C152.518 26.2074 150.741 24.6462 149.464 22.6406C148.211 20.635 147.584 18.299 147.584 15.6324C147.584 12.9659 148.211 10.6299 149.464 8.62427C150.741 6.61867 152.518 5.0575 154.797 3.94075C157.099 2.824 159.766 2.26562 162.797 2.26562C165.851 2.26562 168.517 2.824 170.796 3.94075C173.076 5.0575 174.853 6.61867 176.13 8.62427C177.406 10.6299 178.044 12.9659 178.044 15.6324C178.044 18.299 177.406 20.635 176.13 22.6406C174.853 24.6462 173.076 26.2074 170.796 27.3241C168.517 28.4409 165.851 28.9993 162.797 28.9993ZM162.797 22.6748C164.461 22.6748 165.896 22.3899 167.104 21.8202C168.312 21.2504 169.235 20.4413 169.873 19.3929C170.534 18.3446 170.865 17.0911 170.865 15.6324C170.865 14.1738 170.534 12.9203 169.873 11.872C169.235 10.8236 168.312 10.0145 167.104 9.44474C165.896 8.87497 164.461 8.59008 162.797 8.59008C161.156 8.59008 159.732 8.87497 158.524 9.44474C157.316 10.0145 156.381 10.8236 155.72 11.872C155.059 12.9203 154.729 14.1738 154.729 15.6324C154.729 17.0911 155.059 18.3446 155.72 19.3929C156.381 20.4413 157.316 21.2504 158.524 21.8202C159.732 22.3899 161.156 22.6748 162.797 22.6748Z" fill="white"/>
<path d="M124.824 14.0256H134.157C135.297 14.0256 136.185 13.7635 136.824 13.2393C137.462 12.7151 137.781 11.9858 137.781 11.0514C137.781 10.0942 137.462 9.36487 136.824 8.86347C136.185 8.33928 135.297 8.07718 134.157 8.07718H123.833L127.012 4.69274V28.4522H119.936V2.8125H135.148C137.108 2.8125 138.818 3.16576 140.276 3.87227C141.735 4.556 142.875 5.51322 143.695 6.74392C144.515 7.95183 144.926 9.38766 144.926 11.0514C144.926 12.6695 144.515 14.094 143.695 15.3247C142.875 16.5554 141.735 17.5126 140.276 18.1963C138.818 18.88 137.108 19.2219 135.148 19.2219H124.824V14.0256ZM128.653 16.4528H136.618L145.815 28.4522H137.61L128.653 16.4528Z" fill="white"/>
<path d="M113.238 17.3418C113.169 18.8915 112.85 20.3729 112.28 21.786C111.733 23.1762 110.924 24.4183 109.853 25.5123C108.805 26.6062 107.483 27.4609 105.888 28.0762C104.315 28.6916 102.48 28.9993 100.384 28.9993C98.3781 28.9993 96.4978 28.7144 94.7429 28.1446C92.988 27.5521 91.4382 26.686 90.0936 25.5465C88.7717 24.4069 87.7347 23.0053 86.9826 21.3416C86.2533 19.6778 85.8887 17.7748 85.8887 15.6324C85.8887 13.4901 86.2647 11.5871 87.0168 9.92334C87.7689 8.25961 88.8173 6.85798 90.162 5.71844C91.5294 4.57889 93.102 3.72424 94.8797 3.15447C96.6801 2.56191 98.6401 2.26562 100.76 2.26562C103.586 2.26562 106.024 2.69865 108.076 3.5647C110.127 4.43075 111.779 5.61588 113.033 7.12007C114.286 8.62427 115.095 10.3678 115.46 12.3506H108.315C108.087 11.4845 107.62 10.7438 106.913 10.1285C106.229 9.49032 105.363 9.01171 104.315 8.69264C103.289 8.35078 102.116 8.17985 100.794 8.17985C99.1985 8.17985 97.8197 8.46473 96.6573 9.0345C95.495 9.58148 94.5948 10.4133 93.9566 11.5301C93.3185 12.6241 92.9994 13.9915 92.9994 15.6324C92.9994 17.2962 93.3413 18.6978 94.025 19.8374C94.7087 20.9769 95.6773 21.8316 96.9308 22.4013C98.2071 22.9711 99.6999 23.256 101.409 23.256C103.073 23.256 104.543 23.0281 105.819 22.5723C107.096 22.0937 108.11 21.3985 108.862 20.4869C109.637 19.5753 110.081 18.4813 110.195 17.205L113.238 17.3418ZM102.093 20.1792V15.188H115.699V28.4523H110.674L109.682 18.299L111.016 20.1792H102.093Z" fill="white"/>
<path d="M60.7934 23.5294V17.8203H78.4677V23.5294H60.7934ZM74.4337 2.8125L86.0912 28.4522H78.5361L68.7588 5.82089H70.81L60.9985 28.4522H53.4434L65.1009 2.8125H74.4337Z" fill="white"/>
<path d="M38.7709 24.2109L0.371094 28.9954H38.7709H45.2729V24.2109H38.7709Z" fill="#8DCD43"/>
<path d="M36.5063 15.0928L0.371091 28.9953L37.1171 19.4524C38.1256 19.1905 39.1633 19.0579 40.2052 19.0579H45.1379V14.2734H40.9178C39.4095 14.2734 37.914 14.5512 36.5063 15.0928Z" fill="#8DCD43"/>
<path d="M35.6727 7.1581L0.371091 28.9978L36.0722 11.374C37.7635 10.5391 39.6244 10.1048 41.5105 10.1048H45.1452V5.32031H42.1364C39.8529 5.32031 37.6146 5.95672 35.6727 7.1581Z" fill="#8DCD43"/>
<path d="M7.36566 6.40776C11.7073 0.151187 21.8922 0.59671 26.1078 0.707651C25.4001 1.62818 21.9153 4.09589 19.1457 11.4794C15.8992 20.1341 5.70709 20.5167 0.371094 28.9957C3.23093 22.1423 1.80273 14.4243 7.36566 6.40776Z" fill="#8DCD43"/>
</svg>
