<svg width="146" height="81" viewBox="0 0 146 81" fill="none" xmlns="http://www.w3.org/2000/svg">
<rect x="54.2402" y="68.6016" width="36.0751" height="3" rx="1.5" fill="#8DCD43"/>
<rect x="94.6445" y="68.6016" width="36.0751" height="3" rx="1.5" fill="#8DCD43"/>
<rect x="13.8359" y="68.6016" width="36.0751" height="3" rx="1.5" fill="#8DCD43"/>
<rect x="54.2402" y="58.5" width="36.0751" height="3" rx="1.5" fill="#8DCD43"/>
<rect x="94.6445" y="58.5" width="36.0751" height="3" rx="1.5" fill="#8DCD43"/>
<rect x="13.8359" y="58.5" width="36.0751" height="3" rx="1.5" fill="#8DCD43"/>
<rect x="54.2402" y="48.3984" width="36.0751" height="3" rx="1.5" fill="#8DCD43"/>
<rect x="94.6445" y="48.3984" width="36.0751" height="3" rx="1.5" fill="#8DCD43"/>
<rect x="13.8359" y="48.3984" width="36.0751" height="3" rx="1.5" fill="#8DCD43"/>
<rect x="13.8359" y="38.6875" width="36.0751" height="3" rx="1.5" fill="#8DCD43"/>
<rect x="54.2402" y="38.2969" width="36.0751" height="3" rx="1.5" fill="#8DCD43"/>
<rect x="54.2402" y="28.1953" width="36.0751" height="3" rx="1.5" fill="#8DCD43"/>
<path d="M116.348 38.6881H107.632C106.836 38.6881 106.189 38.042 106.189 37.2451V22.193C106.189 21.3961 106.836 20.75 107.632 20.75H120.62C121.416 20.75 122.063 21.3961 122.063 22.193L122.063 37.2451C122.063 38.042 121.416 38.6881 120.62 38.6881H116.348Z" fill="#8DCD43"/>
<path d="M112.227 2.44089C112.802 1.62991 114.005 1.62991 114.581 2.44089L128.034 21.4103C128.712 22.3658 128.028 23.688 126.857 23.688H99.9502C98.7788 23.688 98.0955 22.3658 98.7732 21.4103L112.227 2.44089Z" fill="#8DCD43"/>
</svg>
