<svg width="21" height="18" viewBox="0 0 21 18" fill="none" xmlns="http://www.w3.org/2000/svg">
<path fill-rule="evenodd" clip-rule="evenodd" d="M18.5696 0.773715C18.8167 0.669706 19.0872 0.633834 19.3529 0.669832C19.6186 0.705831 19.8698 0.812383 20.0803 0.9784C20.2908 1.14442 20.453 1.36383 20.55 1.6138C20.647 1.86377 20.6751 2.13516 20.6316 2.39972L18.3636 16.1567C18.1436 17.4837 16.6876 18.2447 15.4706 17.5837C14.4526 17.0307 12.9406 16.1787 11.5806 15.2897C10.9006 14.8447 8.81762 13.4197 9.07362 12.4057C9.29362 11.5387 12.7936 8.28071 14.7936 6.34372C15.5786 5.58272 15.2206 5.14372 14.2936 5.84372C11.9916 7.58172 8.29562 10.2247 7.07362 10.9687C5.99562 11.6247 5.43362 11.7367 4.76162 11.6247C3.53562 11.4207 2.39862 11.1047 1.47062 10.7197C0.216622 10.1997 0.277622 8.47572 1.46962 7.97372L18.5696 0.773715Z" fill="#8DCD43"/>
</svg>
